<svg xmlns="http://www.w3.org/2000/svg" width="1280" height="720" viewBox="0 0 1280 720">
  <defs>
    <linearGradient id="bg" x1="0" x2="1" y1="0" y2="1">
      <stop offset="0" stop-color="#0b1020"/>
      <stop offset="1" stop-color="#020617"/>
    </linearGradient>
    <filter id="shadow" x="-20%" y="-20%" width="140%" height="140%">
      <feDropShadow dx="0" dy="18" stdDeviation="22" flood-color="#000" flood-opacity=".42"/>
    </filter>
  </defs>
  <rect width="1280" height="720" fill="url(#bg)"/>
  <circle cx="1120" cy="110" r="190" fill="#c084fc" opacity=".14"/>
  <rect x="52" y="54" width="1176" height="612" rx="22" fill="#0f172a" stroke="#ffffff" stroke-opacity=".12" filter="url(#shadow)"/>
  <rect x="52" y="54" width="1176" height="48" rx="22" fill="#111827"/>
  <circle cx="86" cy="78" r="7" fill="#fb7185"/><circle cx="112" cy="78" r="7" fill="#fbbf24"/><circle cx="138" cy="78" r="7" fill="#34d399"/>
  <text x="640" y="84" text-anchor="middle" fill="#94a3b8" font-family="Inter, Arial" font-size="18">CLAUDE / Subagentes con frontera clara</text>
  <text x="86" y="152" fill="#f8fafc" font-family="Inter, Arial" font-size="34" font-weight="700">Subagentes con frontera clara</text>
  <text x="86" y="188" fill="#cbd5e1" font-family="Inter, Arial" font-size="20">Explorar, implementar y revisar son trabajos distintos</text>
  <g>
    <rect x="68" y="232" width="148" height="108" rx="14" fill="#c084fc" opacity=".22" stroke="#c084fc" stroke-opacity=".55"/>
    <text x="142" y="292" text-anchor="middle" fill="#f8fafc" font-family="JetBrains Mono, Consolas, monospace" font-size="15" font-weight="700">Explorer</text>
  </g><g>
    <rect x="242" y="232" width="148" height="108" rx="14" fill="#c084fc" opacity=".11" stroke="#c084fc" stroke-opacity=".55"/>
    <text x="316" y="292" text-anchor="middle" fill="#f8fafc" font-family="JetBrains Mono, Consolas, monospace" font-size="15" font-weight="700">Developer</text>
  </g><g>
    <rect x="416" y="232" width="148" height="108" rx="14" fill="#c084fc" opacity=".11" stroke="#c084fc" stroke-opacity=".55"/>
    <text x="490" y="292" text-anchor="middle" fill="#f8fafc" font-family="JetBrains Mono, Consolas, monospace" font-size="15" font-weight="700">QA</text>
  </g><g>
    <rect x="590" y="232" width="148" height="108" rx="14" fill="#c084fc" opacity=".11" stroke="#c084fc" stroke-opacity=".55"/>
    <text x="664" y="292" text-anchor="middle" fill="#f8fafc" font-family="JetBrains Mono, Consolas, monospace" font-size="15" font-weight="700">Orchestrator</text>
  </g>
  <rect x="72" y="388" width="640" height="212" rx="16" fill="#020617" stroke="#ffffff" stroke-opacity=".12"/>
  <text x="102" y="432" fill="#c084fc" font-family="JetBrains Mono, Consolas, monospace" font-size="20">handoff: files + risk</text><text x="102" y="470" fill="#d1d5db" font-family="JetBrains Mono, Consolas, monospace" font-size="20">scope: bounded</text><text x="102" y="508" fill="#d1d5db" font-family="JetBrains Mono, Consolas, monospace" font-size="20">review: independent</text><text x="102" y="546" fill="#d1d5db" font-family="JetBrains Mono, Consolas, monospace" font-size="20">signoff: human</text>
  <rect x="770" y="236" width="390" height="364" rx="18" fill="#020617" stroke="#c084fc" stroke-opacity=".42"/>
  <text x="806" y="286" fill="#f8fafc" font-family="Inter, Arial" font-size="25" font-weight="700">Decision visible</text>
  <text x="806" y="334" fill="#cbd5e1" font-family="Inter, Arial" font-size="18">1. mirar contexto</text>
  <text x="806" y="374" fill="#cbd5e1" font-family="Inter, Arial" font-size="18">2. limitar permiso</text>
  <text x="806" y="414" fill="#cbd5e1" font-family="Inter, Arial" font-size="18">3. pedir evidencia</text>
  <text x="806" y="454" fill="#cbd5e1" font-family="Inter, Arial" font-size="18">4. firmar o bloquear</text>
  <rect x="806" y="504" width="292" height="48" rx="12" fill="#c084fc" opacity=".22"/>
  <text x="952" y="535" text-anchor="middle" fill="#f8fafc" font-family="Inter, Arial" font-size="18" font-weight="700">output revisable</text>
</svg>